HIERARCHY
ROOT Hips
{
	OFFSET 0.0000 0.0000 0.0000
	CHANNELS 6 Xposition Yposition Zposition Zrotation Xrotation Yrotation
	JOINT RightUpperLeg
	{
		OFFSET 8.0000 0.0000 0.0000
		CHANNELS 3 Zrotation Xrotation Yrotation
		JOINT RightLowerLeg
		{
			OFFSET 0.0000 -42.0000 0.0000
			CHANNELS 3 Zrotation Xrotation Yrotation
			JOINT RightFoot
			{
				OFFSET 0.0000 -42.0000 0.0000
				CHANNELS 3 Zrotation Xrotation Yrotation
				JOINT RightToe
				{
					OFFSET 0.0000 -8.0000 10.0000
					CHANNELS 3 Zrotation Xrotation Yrotation
					End Site
					{
						OFFSET 0.0000 5.0000 0.0000
					}
				}
			}
		}
	}
	JOINT LeftUpperLeg
	{
		OFFSET -8.0000 0.0000 0.0000
		CHANNELS 3 Zrotation Xrotation Yrotation
		JOINT LeftLowerLeg
		{
			OFFSET 0.0000 -42.0000 0.0000
			CHANNELS 3 Zrotation Xrotation Yrotation
			JOINT LeftFoot
			{
				OFFSET 0.0000 -42.0000 0.0000
				CHANNELS 3 Zrotation Xrotation Yrotation
				JOINT LeftToe
				{
					OFFSET 0.0000 -8.0000 10.0000
					CHANNELS 3 Zrotation Xrotation Yrotation
					End Site
					{
						OFFSET 0.0000 5.0000 0.0000
					}
				}
			}
		}
	}
	JOINT Spine
	{
		OFFSET 0.0000 8.0000 0.0000
		CHANNELS 3 Zrotation Xrotation Yrotation
		JOINT Spine1
		{
			OFFSET 0.0000 9.0000 0.0000
			CHANNELS 3 Zrotation Xrotation Yrotation
			JOINT Spine2
			{
				OFFSET 0.0000 9.0000 0.0000
				CHANNELS 3 Zrotation Xrotation Yrotation
				JOINT Neck
				{
					OFFSET 0.0000 20.0000 0.0000
					CHANNELS 3 Zrotation Xrotation Yrotation
					JOINT Head
					{
						OFFSET 0.0000 10.0000 0.0000
						CHANNELS 3 Zrotation Xrotation Yrotation
						End Site
						{
							OFFSET 0.0000 5.0000 0.0000
						}
					}
				}
				JOINT RightShoulder
				{
					OFFSET 5.0000 18.0000 0.0000
					CHANNELS 3 Zrotation Xrotation Yrotation
					JOINT RightUpperArm
					{
						OFFSET 15.0000 0.0000 0.0000
						CHANNELS 3 Zrotation Xrotation Yrotation
						JOINT RightLowerArm
						{
							OFFSET 28.0000 0.0000 0.0000
							CHANNELS 3 Zrotation Xrotation Yrotation
							JOINT RightHand
							{
								OFFSET 25.0000 0.0000 0.0000
								CHANNELS 3 Zrotation Xrotation Yrotation
								End Site
								{
									OFFSET 0.0000 5.0000 0.0000
								}
							}
						}
					}
				}
				JOINT LeftShoulder
				{
					OFFSET -5.0000 18.0000 0.0000
					CHANNELS 3 Zrotation Xrotation Yrotation
					JOINT LeftUpperArm
					{
						OFFSET -15.0000 0.0000 0.0000
						CHANNELS 3 Zrotation Xrotation Yrotation
						JOINT LeftLowerArm
						{
							OFFSET -28.0000 0.0000 0.0000
							CHANNELS 3 Zrotation Xrotation Yrotation
							JOINT LeftHand
							{
								OFFSET -25.0000 0.0000 0.0000
								CHANNELS 3 Zrotation Xrotation Yrotation
								End Site
								{
									OFFSET 0.0000 5.0000 0.0000
								}
							}
						}
					}
				}
			}
		}
	}
}
MOTION
Frames: 10
Frame Time: 0.033333
-3.091975 -2.879253 99.326301 120.598143 81.132757 63.196970 10.474695 16.678414 6.037180 3.298381 1.584202 -2.124776 -6.900946 -6.810117 1.523667 10.971294 -0.323162 0.548120 10.998006 -29.006074 3.065711 -1.493665 3.277402 -1.913382 -18.826474 9.186434 10.988333 1.462648 -7.748870 -6.750313 7.025709 6.175113 0.756330 -5.406157 -1.689678 2.728830 1.989121 3.125898 -1.723981 -3.090491 -14.557362 -2.873852 -1.149536 1.136472 0.570511 -2.230587 1.306395 7.944921 61.199983 6.226042 18.681261 7.375216 -2.485858 23.103597 6.105053 -0.786588 4.097663 -2.155802 -1.396447 -1.656323 -64.387326 31.250622 -13.858477 -3.510734 -0.571213 -26.555173 -6.684043 -17.222789 -2.857576
-3.888584 0.649342 98.521298 119.097228 81.194064 63.845342 9.890317 19.317747 5.858156 3.053608 1.014313 -1.819484 -6.629477 -7.987990 1.953169 11.264165 -0.573180 0.835878 10.582158 -30.010685 2.652246 -1.847439 5.592333 -1.841857 -17.397599 8.135878 10.110489 1.586344 -7.689763 -6.661168 6.986057 6.302795 0.624225 -5.559910 -1.775412 2.776030 2.181046 3.051315 -1.789708 -3.716279 -15.172648 -2.853850 -1.069734 0.945716 1.011156 -2.063914 1.605066 7.711948 60.939335 6.807573 19.523638 6.839049 -2.269959 22.229660 6.648195 0.398722 4.495375 -3.008260 -1.353599 -1.862436 -64.003748 31.973794 -14.258692 -3.309736 -0.524143 -25.094880 -6.460289 -17.936282 -2.830986
-4.856149 4.456408 97.852081 118.020762 82.413367 63.988486 7.993585 21.364479 5.471575 2.567645 1.085009 -1.512807 -5.154344 -8.672341 3.151743 10.784534 -1.823257 1.376244 8.817293 -31.031892 1.163322 -2.226062 9.132252 -1.694478 -15.308739 11.269545 9.336846 2.741716 -7.987275 -6.417133 6.321317 6.181753 0.561647 -5.337767 -1.772014 2.709249 2.229795 3.010316 -1.759188 -4.265412 -16.402326 -2.567945 -0.582091 0.932910 1.488615 -0.638430 1.881160 7.661802 59.993300 7.024107 19.820214 6.261483 -1.920939 21.434122 7.194340 1.194549 4.971315 -4.873250 -1.476027 -2.021393 -62.713332 32.361704 -14.565499 -2.757725 -0.091187 -23.022978 -6.231425 -17.784238 -1.676801
-5.940033 8.632761 97.632635 116.266720 84.825329 64.796259 5.034338 23.092527 5.057797 1.483609 1.057895 -1.005317 -2.120078 -6.574845 4.465470 9.848719 -4.624107 2.320364 5.683299 -32.234691 -1.175638 -2.299661 11.684711 -1.372139 -13.740994 17.723004 9.873284 4.150680 -8.117569 -5.590716 5.083393 5.754013 0.611323 -4.778502 -1.748193 2.600884 2.067407 3.029230 -1.756910 -4.314216 -17.860498 -2.078771 0.036698 0.923128 1.700306 1.436554 1.815425 7.874810 58.928045 7.214267 19.105122 5.864711 -1.569839 20.896044 7.189328 1.874007 5.120387 -6.905726 -1.886668 -2.311271 -61.361119 32.463639 -14.322950 -2.293081 0.517898 -20.644816 -6.423007 -17.745941 -0.041441
-6.944296 12.886064 97.652858 113.407255 87.103859 67.014910 2.545712 24.484221 4.955119 0.133087 1.611179 -0.387208 1.062283 -1.674479 4.699043 9.201277 -9.206848 3.816527 2.797052 -32.929830 -2.973456 -2.408321 14.173460 -0.920823 -13.058826 21.719822 10.364781 5.192344 -7.618773 -4.697533 3.882398 5.290596 0.699467 -4.213272 -1.880092 2.457375 1.801407 3.133505 -1.745412 -3.953611 -18.924120 -1.799005 0.584239 0.806357 1.822361 2.295861 1.606730 7.725193 59.387670 7.889869 17.820545 5.910876 -1.422830 20.464192 7.189306 2.368549 4.991095 -7.288163 -2.386478 -2.486348 -60.826095 33.490079 -14.252341 -2.300705 0.750106 -18.746835 -6.765086 -17.366479 1.471874
-7.843472 17.163962 98.010349 106.822600 88.916558 73.478485 0.488156 23.213881 5.356690 -0.301519 6.259486 0.091556 3.311767 5.346597 3.128895 9.508207 -15.953489 6.149450 0.386952 -32.918197 -3.987916 -2.708963 16.721128 -0.326674 -12.050374 22.275489 9.960819 5.874248 -6.385595 -3.976048 2.836903 4.896351 0.808493 -3.592906 -2.167454 2.234660 1.442706 3.341794 -1.751019 -3.396072 -19.741205 -1.633547 0.751590 1.030957 1.811189 2.234237 1.076845 7.394678 61.041837 8.866700 15.973236 6.122648 -1.359709 19.917367 7.459790 2.345353 4.248240 -6.324019 -2.971921 -2.529405 -61.020485 35.044719 -14.377400 -2.615246 1.017589 -17.826227 -7.068818 -16.550080 2.529306
-8.671359 21.351546 98.519504 -47.347241 89.504881 -132.024028 -1.274800 19.404869 5.431918 -0.067020 14.259276 0.593102 5.262123 15.246943 0.892868 10.131371 -22.953204 8.708962 -1.720640 -32.267673 -4.530903 -3.220649 19.080006 0.379807 -10.415282 19.890304 8.327430 6.266818 -4.923312 -3.645499 1.802644 4.521397 0.934016 -2.815287 -2.422332 1.759483 1.018992 3.555033 -1.561903 -2.982183 -20.212270 -2.061871 0.704693 1.347435 1.838259 1.979863 0.414439 6.906833 63.045245 9.708511 13.804061 6.178820 -1.249625 19.300232 7.453638 1.070325 3.414959 -4.857894 -3.401580 -2.708102 -61.150962 36.367652 -14.932082 -3.060386 1.131508 -17.858879 -7.068288 -15.663027 3.422258
-9.321815 25.340083 99.108994 -60.752638 88.253047 -118.095417 -2.723637 13.127723 5.462693 0.498783 25.137695 0.579813 8.628556 25.967072 -2.565291 8.867572 -21.696756 8.462430 -3.472098 -30.919888 -4.668646 -3.721863 20.777088 1.060243 -8.160194 15.477189 6.175938 6.010465 -4.326810 -3.599684 0.752347 4.227801 1.079602 -1.811443 -2.703705 1.127491 0.559040 3.875893 -1.337161 -2.613057 -20.758677 -2.344581 0.453883 1.291260 1.397379 2.099400 -0.198769 6.721745 64.382561 10.199726 11.993456 6.145101 -1.113010 18.546651 7.462149 -0.033118 2.311235 -3.689771 -3.760305 -2.876461 -60.579874 37.320685 -16.066722 -3.188943 1.338957 -18.581346 -7.016574 -14.866001 3.626202
-9.826235 28.973848 99.608690 -63.027067 87.015525 -115.135906 -3.837544 5.224012 5.622467 0.779616 37.040823 0.193784 14.226669 34.626181 -6.941226 5.085046 -9.577233 3.265109 -5.088029 -29.137744 -4.569299 -3.992141 21.287259 1.720915 -6.588519 11.950724 4.066177 5.455942 -3.963867 -3.572348 -0.364733 3.992527 1.074813 -0.691943 -2.930180 0.605385 0.189937 4.256664 -1.168826 -2.669848 -21.361722 -2.666144 0.473375 0.881966 1.166088 2.079308 -0.802616 6.661877 65.307160 10.425410 10.817368 6.168929 -0.818375 18.026998 7.598984 -1.365887 1.625427 -3.009127 -4.094206 -3.206988 -59.043617 37.942378 -17.908236 -3.124544 1.587907 -19.841048 -6.707283 -14.526048 3.533620
-10.287968 32.339612 100.107396 -66.696408 85.839234 -110.343741 -4.922350 -2.840102 5.023208 1.548299 48.049457 0.456362 15.026495 33.892191 -7.837481 4.348779 -5.796830 1.709102 -6.956868 -26.768616 -5.135816 -4.031175 20.911902 2.310827 -5.506237 9.287971 2.488316 4.606790 -3.481726 -3.447335 -1.437218 3.864255 0.813844 0.418458 -2.980300 0.137530 -0.122546 4.461010 -0.959087 -2.944994 -21.445550 -3.146545 0.681289 -0.116892 1.456560 2.000716 -1.113911 6.454724 65.817696 10.726765 10.319084 6.237077 -0.419599 17.845872 7.679181 -2.668088 1.665620 -2.799663 -4.275990 -3.427293 -56.534048 38.402095 -20.627147 -2.930954 1.802065 -21.082188 -5.962683 -14.614976 3.310005
